<svg width="19" height="19" viewBox="0 0 19 19" fill="none" xmlns="http://www.w3.org/2000/svg">
<path d="M15.861 3.77478C15.8604 3.76848 15.8593 3.76234 15.8583 3.75621C15.8579 3.75416 15.8578 3.75205 15.8573 3.75C15.8559 3.74268 15.854 3.73552 15.852 3.72846L15.8513 3.72584C15.8491 3.71858 15.8465 3.71149 15.8437 3.70454L15.843 3.70235C15.8402 3.69571 15.8371 3.68927 15.8339 3.68293L15.8323 3.67972C15.8292 3.67383 15.8257 3.66817 15.8222 3.66254C15.8212 3.66111 15.8205 3.65961 15.8196 3.65822C15.8161 3.65297 15.8123 3.64799 15.8084 3.64301C15.8072 3.64138 15.806 3.63967 15.8047 3.63807C15.7999 3.63218 15.7948 3.62655 15.7895 3.6211L15.7881 3.61953L12.2725 0.0748474L12.2706 0.0731091C12.2653 0.0678943 12.2599 0.06285 12.2542 0.0581124C12.2523 0.0565786 12.2504 0.0552834 12.2485 0.0538178C12.2438 0.0501709 12.2392 0.046524 12.2343 0.0432179C12.2326 0.042059 12.2307 0.0411047 12.229 0.0399799C12.2237 0.0366057 12.2185 0.0332655 12.213 0.0303002L12.2092 0.0284938C12.2031 0.025324 12.1969 0.0222565 12.1905 0.0195639L12.188 0.0186437C12.1811 0.0158829 12.1742 0.0132926 12.1671 0.0111112L12.1644 0.0103955C12.1574 0.00835046 12.1504 0.00647586 12.1432 0.00501027C12.1411 0.00456719 12.1389 0.00439677 12.1367 0.00402185C12.1307 0.00296526 12.1247 0.00190868 12.1186 0.00129517C12.1102 0.000443085 12.1018 0 12.0933 0H3.71016C2.97393 0 2.37494 0.60396 2.37494 1.3463V16.0704C2.37494 16.8127 2.97393 17.4167 3.71016 17.4167H14.5271C15.2633 17.4167 15.8623 16.8127 15.8623 16.0704V3.80031C15.8623 3.79176 15.8619 3.78323 15.861 3.77478ZM11.8749 0.791667L14.6458 3.5625H12.6666C11.8749 3.5625 11.8749 3.16667 11.8749 2.77083V0.791667ZM14.5271 16.625H3.71016C3.56244 16.625 3.16661 16.625 3.16661 16.0704V8.70833V1.3463C3.16661 0.791667 3.56244 0.791667 3.71016 0.791667H11.0833V2.77083C11.0833 3.95833 11.8749 4.35417 12.6666 4.35417H15.0416V16.0704C15.0416 16.4725 14.6458 16.625 14.5271 16.625Z" fill="white"/>
<path d="M13.6782 11.077L11.4562 8.85443C11.8731 7.90789 11.6947 6.76019 10.9207 5.98596C9.91219 4.97724 8.2798 4.9771 7.27119 5.98596C6.26507 6.99232 6.26507 8.62978 7.27119 9.63613C8.07071 10.4358 9.24241 10.5881 10.1778 10.1557L12.3885 12.3669C12.7449 12.7234 13.3219 12.7234 13.6783 12.3668C14.0338 12.0112 14.0337 11.4326 13.6782 11.077ZM7.68291 9.22449C6.90371 8.44512 6.90371 7.17699 7.68291 6.3976C8.46383 5.61648 9.72789 5.61634 10.5089 6.3976C11.2881 7.17699 11.2881 8.44512 10.5089 9.22449C9.728 10.0056 8.46395 10.0058 7.68291 9.22449ZM13.2665 11.9552C13.1377 12.0841 12.9291 12.0842 12.8002 11.9553L10.6881 9.84264C10.8617 9.70597 11.0164 9.54905 11.1508 9.37241L13.2665 11.4886C13.3951 11.6173 13.3951 11.8266 13.2665 11.9552Z" fill="white"/>
<path d="M4.30019 8.71752H5.54149C5.70225 8.71752 5.83259 8.58718 5.83259 8.42642C5.83259 8.26565 5.70225 8.13531 5.54149 8.13531H4.30019C4.13943 8.13531 4.00909 8.26565 4.00909 8.42642C4.00909 8.58718 4.13943 8.71752 4.30019 8.71752Z" fill="white"/>
<path d="M4.30019 9.95958H6.00698C6.16774 9.95958 6.29808 9.82925 6.29808 9.66848C6.29808 9.50772 6.16774 9.37738 6.00698 9.37738H4.30019C4.13943 9.37738 4.00909 9.50772 4.00909 9.66848C4.00909 9.82925 4.13943 9.95958 4.30019 9.95958Z" fill="white"/>
<path d="M4.30019 11.2016H7.24829C7.40905 11.2016 7.53939 11.0712 7.53939 10.9105C7.53939 10.7497 7.40905 10.6194 7.24829 10.6194H4.30019C4.13943 10.6194 4.00909 10.7497 4.00909 10.9105C4.00909 11.0712 4.13943 11.2016 4.30019 11.2016Z" fill="white"/>
<path d="M10.6619 11.8615H4.30019C4.13943 11.8615 4.00909 11.9918 4.00909 12.1525C4.00909 12.3133 4.13943 12.4436 4.30019 12.4436H10.6619C10.8226 12.4436 10.953 12.3133 10.953 12.1525C10.953 11.9918 10.8226 11.8615 10.6619 11.8615Z" fill="white"/>
</svg>
