<svg width="21" height="21" viewBox="0 0 21 21" fill="none" xmlns="http://www.w3.org/2000/svg">
<g clip-path="url(#clip0)">
<path d="M10.0227 15.2727C9.49556 15.2727 9.06818 15.7001 9.06818 16.2273V20.0455C9.06818 20.5727 9.49556 21 10.0227 21C10.5499 21 10.9773 20.5727 10.9773 20.0455V16.2273C10.9772 15.7001 10.5499 15.2727 10.0227 15.2727Z" fill="#2D50A7"/>
<path d="M10.0227 0C9.49556 0 9.06818 0.427383 9.06818 0.954557V4.77274C9.06818 5.29992 9.49556 5.7273 10.0227 5.7273C10.5499 5.7273 10.9773 5.29992 10.9773 4.77274V0.954557C10.9772 0.427383 10.5499 0 10.0227 0Z" fill="#73A1FB"/>
<path d="M14.7474 13.8748C14.3747 13.502 13.7703 13.502 13.3975 13.8748C13.0248 14.2475 13.0248 14.852 13.3975 15.2247L16.0974 17.9246C16.2838 18.111 16.5281 18.2042 16.7723 18.2042C17.0166 18.2042 17.261 18.111 17.4473 17.9246C17.8201 17.5518 17.8201 16.9475 17.4473 16.5747L14.7474 13.8748Z" fill="#355EC9"/>
<path d="M3.34093 9.54544H1.43182C0.904647 9.54544 0.477264 9.97282 0.477264 10.5C0.477264 11.0272 0.904647 11.4546 1.43182 11.4546H3.34089C3.86807 11.4546 4.29545 11.0272 4.29545 10.5C4.29545 9.97282 3.86807 9.54544 3.34093 9.54544Z" fill="#C4D9FD"/>
<path d="M3.94799 3.07543C3.57529 2.70264 2.97084 2.70264 2.59809 3.07543C2.22534 3.44822 2.2253 4.05263 2.59809 4.42534L5.29798 7.12519C5.48436 7.31156 5.72869 7.40479 5.97289 7.40479C6.21718 7.40479 6.46151 7.31156 6.64781 7.12519C7.0206 6.7524 7.0206 6.14803 6.64781 5.77528L3.94799 3.07543Z" fill="#C4D9FD"/>
<path d="M19.5682 9.54544H15.75C15.2228 9.54544 14.7954 9.97282 14.7954 10.5C14.7954 11.0272 15.2228 11.4546 15.75 11.4546H19.5682C20.0954 11.4546 20.5227 11.0272 20.5227 10.5C20.5227 9.97282 20.0954 9.54544 19.5682 9.54544Z" fill="#3D6DEB"/>
<path d="M16.0974 3.07543L13.3975 5.77528C13.0248 6.14799 13.0248 6.75244 13.3975 7.12519C13.5839 7.31156 13.8282 7.40479 14.0725 7.40479C14.3167 7.40479 14.5611 7.31156 14.7474 7.12519L17.4473 4.42534C17.8201 4.05263 17.8201 3.44818 17.4473 3.07543C17.0746 2.70264 16.4702 2.70264 16.0974 3.07543Z" fill="#5286FA"/>
</g>
<defs>
<clipPath id="clip0">
<rect width="21" height="21" fill="white"/>
</clipPath>
</defs>
</svg>
